# xmcd
#
# Track frame offsets:
#	150
#	19102
#	38117
#	48698
#	63584
#	81681
#	95465
#	112079
#	126060
#	150074
#	165846
#	191297
#	203094
#	226853
#
# Disc length: 3284 seconds
#
# Revision: 0
# Processed by: cddbd v1.4PL0 Copyright (c) Steve Scherf et al.
# Submitted via: audiograbber 1.81.01
#
DISCID=ac0cd20e
DTITLE=Petrov and Power - The Bulgarian Project
DYEAR=1999
DGENRE=Blues
TTITLE0=Petrohan Pass
TTITLE1=Mother and Son
TTITLE2=Bulgarian 9/8
TTITLE3=Gossip
TTITLE4=Lament for the 21st Century
TTITLE5=Sweet Bulgarity
TTITLE6=Japuneasy
TTITLE7=Bulgarian Jig
TTITLE8=Sadness
TTITLE9=The Sofia Shuffle
TTITLE10=Nagila Jam
TTITLE11=Rajanitsa Song
TTITLE12=Jig Indigo/Chroma Bender
TTITLE13=The Digeriblues
EXTD=
EXTT0=
EXTT1=
EXTT2=
EXTT3=
EXTT4=
EXTT5=
EXTT6=
EXTT7=
EXTT8=
EXTT9=
EXTT10=
EXTT11=
EXTT12=
EXTT13=
PLAYORDER=
